#define Icon_width 163
#define Icon_height 163
static char Icon_bits[] = {
  0x00, 0x00, 0x00, 0x00, 0xFC, 0x07, 0x00, 0xFE, 0x00, 0x00, 0x00, 0x00, 
  0x00, 0x00, 0x00, 0x00, 0x00, 0x00, 0x00, 0x00, 0x00, 0x00, 0x00, 0x00, 
  0x00, 0xFC, 0x07, 0x00, 0xFE, 0x00, 0x00, 0x00, 0x00, 0x00, 0x00, 0x00, 
  0x00, 0x00, 0x00, 0x00, 0x00, 0x00, 0x00, 0x00, 0x00, 0x00, 0xFC, 0x07, 
  0x00, 0xFE, 0x00, 0x00, 0x00, 0x00, 0x00, 0x00, 0x00, 0x00, 0x00, 0x00, 
  0x00, 0x00, 0x00, 0x00, 0x00, 0x00, 0x00, 0xFC, 0x07, 0x00, 0xFE, 0x00, 
  0x00, 0x00, 0x00, 0x00, 0x00, 0x00, 0x00, 0x00, 0x00, 0x00, 0x00, 0x00, 
  0x00, 0x00, 0x00, 0x00, 0xFC, 0x07, 0x00, 0xFE, 0x00, 0x00, 0x00, 0x00, 
  0x00, 0x00, 0x00, 0x00, 0x00, 0x00, 0x00, 0x00, 0x00, 0x00, 0x00, 0x00, 
  0x00, 0xFC, 0x07, 0x00, 0xFE, 0x00, 0x00, 0x00, 0x00, 0x00, 0x00, 0x00, 
  0x00, 0x00, 0x00, 0x00, 0x00, 0x00, 0x00, 0x00, 0x00, 0x00, 0xFC, 0x07, 
  0x00, 0xFE, 0x00, 0x00, 0x00, 0x00, 0x00, 0x00, 0x00, 0x00, 0x00, 0x00, 
  0x00, 0x00, 0x00, 0x00, 0x00, 0x00, 0x00, 0xFC, 0x07, 0x00, 0xFE, 0x00, 
  0x00, 0x00, 0x00, 0x00, 0x00, 0x06, 0x00, 0x00, 0x00, 0x00, 0x00, 0x00, 
  0x00, 0x00, 0x00, 0x00, 0xFC, 0x07, 0x00, 0xFE, 0x00, 0x00, 0x00, 0x00, 
  0x00, 0x00, 0xFF, 0xFF, 0xFF, 0xFF, 0xFF, 0xFF, 0x07, 0x00, 0x00, 0x00, 
  0x00, 0xFC, 0x07, 0x00, 0xFE, 0x00, 0x00, 0x00, 0x00, 0x00, 0x80, 0xFF, 
  0xFF, 0xFF, 0xFF, 0xFF, 0xFF, 0x07, 0x00, 0x00, 0x00, 0x00, 0xFC, 0x07, 
  0x00, 0xFE, 0x00, 0x00, 0x00, 0x00, 0x00, 0xC0, 0xFF, 0xFF, 0xFF, 0xFF, 
  0xFF, 0xFF, 0x07, 0x00, 0x00, 0x00, 0x00, 0xFC, 0x07, 0x00, 0xFE, 0x00, 
  0x00, 0x00, 0x00, 0x00, 0xE0, 0xFF, 0xFF, 0xFF, 0xFF, 0xFF, 0xFF, 0x07, 
  0x00, 0x00, 0x00, 0x00, 0xFC, 0x07, 0x00, 0xFE, 0x00, 0x00, 0x00, 0x00, 
  0x00, 0xF0, 0xFF, 0xFF, 0xFF, 0xFF, 0xFF, 0xFF, 0x07, 0x00, 0x00, 0x00, 
  0x00, 0xFC, 0x07, 0x00, 0xFE, 0x00, 0x00, 0x00, 0x00, 0x00, 0xF8, 0xFF, 
  0xFF, 0xFF, 0xFF, 0xFF, 0xFF, 0x07, 0x00, 0x00, 0x00, 0x00, 0xFC, 0x07, 
  0x00, 0xFE, 0x00, 0x00, 0x00, 0x00, 0x00, 0xFC, 0xFF, 0xFF, 0xFF, 0xFF, 
  0xFF, 0xFF, 0x07, 0x00, 0x00, 0x00, 0x00, 0xFC, 0x07, 0x00, 0xFE, 0x00, 
  0x00, 0x00, 0x00, 0x00, 0xFE, 0x0F, 0x00, 0x00, 0x00, 0x00, 0x00, 0x00, 
  0x00, 0x00, 0x00, 0x00, 0xFC, 0x07, 0x00, 0xFE, 0x00, 0x00, 0x00, 0x00, 
  0x00, 0xFF, 0x07, 0x00, 0x00, 0x00, 0x00, 0x00, 0x00, 0x00, 0x00, 0x00, 
  0x00, 0xFC, 0x07, 0x00, 0xFE, 0x00, 0x00, 0x00, 0x00, 0x80, 0xFF, 0x03, 
  0x00, 0x00, 0x00, 0x00, 0x00, 0x00, 0x00, 0x00, 0x00, 0x00, 0xFC, 0x07, 
  0x00, 0xFE, 0x00, 0x00, 0x00, 0x00, 0xC0, 0xFF, 0x01, 0x00, 0x00, 0x00, 
  0x00, 0x00, 0x00, 0x00, 0x00, 0x00, 0x00, 0xFC, 0x07, 0x00, 0xFE, 0x00, 
  0x00, 0x00, 0x00, 0xE0, 0xFF, 0x00, 0x00, 0x00, 0x00, 0x00, 0x00, 0x00, 
  0x00, 0x00, 0x00, 0x00, 0xFC, 0x07, 0x00, 0xFE, 0x00, 0x00, 0x00, 0x00, 
  0xF0, 0x7F, 0x00, 0x00, 0x00, 0x00, 0x00, 0x00, 0x00, 0x00, 0x00, 0x00, 
  0x00, 0xFC, 0x07, 0x00, 0xFE, 0x00, 0x00, 0x00, 0x00, 0xF8, 0x3F, 0x00, 
  0x00, 0x00, 0x00, 0x00, 0x00, 0x00, 0x00, 0x00, 0x00, 0x00, 0xFC, 0x07, 
  0x00, 0xFE, 0x00, 0x00, 0x00, 0x00, 0xFC, 0x1F, 0x00, 0x00, 0x00, 0x00, 
  0x00, 0x00, 0x00, 0x00, 0x00, 0x00, 0x00, 0xFC, 0x07, 0x00, 0xFE, 0x00, 
  0x00, 0x00, 0x00, 0xFC, 0x0F, 0x00, 0x00, 0x00, 0x00, 0x00, 0x00, 0x00, 
  0x00, 0x00, 0x00, 0x00, 0xFC, 0x07, 0x00, 0xFE, 0x00, 0x00, 0x00, 0x00, 
  0xFC, 0x07, 0x00, 0x00, 0x00, 0x00, 0x00, 0x00, 0x00, 0x00, 0x00, 0x00, 
  0x00, 0xFC, 0x07, 0x00, 0xFE, 0x00, 0x00, 0x00, 0x00, 0xFC, 0x03, 0x00, 
  0x00, 0x00, 0x00, 0x00, 0x00, 0x00, 0x00, 0x00, 0x00, 0x00, 0xFC, 0x07, 
  0x00, 0xFE, 0x00, 0x00, 0x00, 0x00, 0xFC, 0x01, 0x00, 0x00, 0x00, 0x00, 
  0x00, 0x00, 0x00, 0x00, 0x00, 0x00, 0x00, 0xFC, 0x07, 0x00, 0xFE, 0x00, 
  0x00, 0x00, 0x00, 0xFC, 0x01, 0x00, 0x00, 0x00, 0x00, 0x00, 0x00, 0x00, 
  0x00, 0x00, 0x00, 0x00, 0xFC, 0x07, 0x00, 0xFE, 0x00, 0x00, 0x00, 0x00, 
  0xFC, 0x01, 0x00, 0x00, 0x00, 0x00, 0x00, 0x00, 0x00, 0x00, 0x00, 0x00, 
  0x00, 0xFC, 0x07, 0x00, 0xFE, 0x00, 0x00, 0x00, 0x00, 0xFC, 0x01, 0x00, 
  0x00, 0x00, 0x00, 0x00, 0x00, 0x00, 0x00, 0x00, 0x00, 0x00, 0xFC, 0x07, 
  0x00, 0xFE, 0x00, 0x00, 0x00, 0x00, 0xFC, 0x01, 0x00, 0x00, 0x00, 0x00, 
  0x00, 0x00, 0x00, 0x00, 0x00, 0x00, 0x00, 0xFC, 0x07, 0x00, 0xFE, 0x00, 
  0x00, 0x00, 0x00, 0xFC, 0x01, 0x00, 0x00, 0x00, 0x00, 0x00, 0x00, 0x00, 
  0x00, 0x00, 0x00, 0x00, 0xFC, 0x07, 0x00, 0xFE, 0x00, 0x00, 0x00, 0x00, 
  0xFC, 0x01, 0x00, 0x00, 0x00, 0x00, 0x00, 0x00, 0x00, 0x00, 0x00, 0x00, 
  0x00, 0xFC, 0x07, 0x00, 0xFE, 0x00, 0x00, 0x00, 0x00, 0xFC, 0x01, 0x00, 
  0x00, 0x00, 0x00, 0x00, 0x00, 0x00, 0x00, 0x00, 0x00, 0x00, 0xFC, 0x07, 
  0x00, 0xFE, 0x00, 0x00, 0x00, 0x00, 0xFC, 0x01, 0x00, 0x00, 0x00, 0x00, 
  0x00, 0x00, 0x00, 0x00, 0x00, 0x00, 0x00, 0xFC, 0x07, 0x00, 0xFE, 0x00, 
  0x00, 0x00, 0x00, 0xFC, 0x01, 0x00, 0x00, 0x00, 0x00, 0x00, 0x00, 0x00, 
  0x00, 0x00, 0x00, 0x00, 0xFC, 0x07, 0x00, 0xFE, 0x00, 0x00, 0x00, 0x00, 
  0xFC, 0x01, 0x00, 0x00, 0x00, 0x00, 0x00, 0x00, 0x00, 0x00, 0x00, 0x00, 
  0x00, 0xFC, 0x07, 0x00, 0xFE, 0x00, 0x00, 0x00, 0x00, 0xFC, 0x01, 0x00, 
  0x00, 0x00, 0x00, 0x00, 0x00, 0x00, 0x00, 0x00, 0x00, 0x00, 0xFC, 0x07, 
  0x00, 0xFE, 0x00, 0x00, 0x00, 0x00, 0xFC, 0x01, 0x00, 0x00, 0x00, 0x00, 
  0x00, 0x00, 0x00, 0x00, 0x00, 0x00, 0x00, 0xFC, 0x07, 0x00, 0xFE, 0x00, 
  0x00, 0x00, 0x00, 0xFC, 0x01, 0x00, 0x00, 0x00, 0x00, 0x00, 0x00, 0x00, 
  0x00, 0x80, 0x3F, 0x00, 0xFC, 0x07, 0x00, 0xFE, 0x00, 0xC0, 0x17, 0x00, 
  0xFC, 0x03, 0x00, 0x7F, 0x00, 0xC0, 0x0F, 0x00, 0x00, 0x00, 0xE0, 0x7F, 
  0x00, 0xBC, 0x0F, 0x80, 0xDF, 0x01, 0xF0, 0x3F, 0x00, 0xFE, 0x05, 0xC0, 
  0xEF, 0x00, 0xF8, 0x1F, 0x00, 0x00, 0x00, 0xF0, 0xFD, 0x00, 0xFC, 0x1B, 
  0x80, 0xFF, 0x03, 0xF0, 0x7F, 0x00, 0xFE, 0x0F, 0xC0, 0xFF, 0x01, 0xF8, 
  0x37, 0x00, 0x00, 0x00, 0xB0, 0xEF, 0x00, 0xEE, 0x1F, 0xC0, 0xF5, 0x03, 
  0xB8, 0x7D, 0x00, 0xBB, 0x0E, 0xE0, 0xDD, 0x01, 0xFC, 0x3F, 0x00, 0x00, 
  0x00, 0xB0, 0xF3, 0x00, 0xDE, 0x19, 0xC0, 0xDF, 0x03, 0xF8, 0x67, 0x00, 
  0xF7, 0x0F, 0xE0, 0x7E, 0x01, 0xDC, 0x2E, 0x00, 0x00, 0x00, 0xB0, 0xCD, 
  0x00, 0x76, 0x1F, 0xC0, 0x75, 0x02, 0xA8, 0x7C, 0x00, 0x9F, 0x0D, 0x60, 
  0xEB, 0x01, 0x7C, 0x3E, 0x00, 0x00, 0x00, 0xD0, 0xFB, 0x00, 0x96, 0x1A, 
  0x40, 0x9A, 0x03, 0x78, 0x69, 0x00, 0xE7, 0x0D, 0xE0, 0xB5, 0x01, 0x9C, 
  0x25, 0x00, 0x00, 0x00, 0x70, 0x8A, 0x00, 0xAE, 0x14, 0xC0, 0xA3, 0x02, 
  0x98, 0x56, 0x00, 0x19, 0x0A, 0x60, 0x85, 0x01, 0xD4, 0x3A, 0x00, 0x00, 
  0x00, 0x70, 0xCA, 0x00, 0x32, 0x12, 0xC0, 0x61, 0x02, 0x38, 0x4C, 0x00, 
  0xAB, 0x08, 0xE0, 0x8A, 0x01, 0x1C, 0x21, 0x00, 0x00, 0x00, 0x10, 0xA8, 
  0x00, 0x0E, 0x18, 0x40, 0x08, 0x03, 0x48, 0x62, 0x00, 0x03, 0x0B, 0x20, 
  0x68, 0x01, 0x5C, 0x2C, 0x00, 0x00, 0x00, 0xB0, 0x95, 0x00, 0x62, 0x12, 
  0xC0, 0x02, 0x02, 0x18, 0x40, 0x00, 0x5B, 0x0C, 0x60, 0x84, 0x01, 0x94, 
  0x36, 0x00, 0x00, 0x00, 0x30, 0xC0, 0x00, 0x06, 0x1C, 0x40, 0xA4, 0x02, 
  0x38, 0x54, 0x00, 0x09, 0x0A, 0x60, 0x21, 0x01, 0x2C, 0x20, 0x00, 0x00, 
  0x00, 0x30, 0xC0, 0x00, 0x06, 0x14, 0xC0, 0x80, 0x02, 0x88, 0x40, 0x00, 
  0x99, 0x0C, 0x60, 0x30, 0x01, 0x0C, 0x34, 0x00, 0x00, 0x00, 0xB0, 0xA5, 
  0x00, 0x66, 0x12, 0x40, 0x19, 0x02, 0x18, 0x59, 0x00, 0x03, 0x09, 0x60, 
  0x85, 0x01, 0x6C, 0x25, 0x00, 0x00, 0x00, 0x30, 0x88, 0x00, 0x26, 0x10, 
  0xC0, 0x48, 0x03, 0x18, 0x40, 0x00, 0x55, 0x0D, 0xE0, 0x88, 0x01, 0x34, 
  0x21, 0x00, 0x00, 0x00, 0x50, 0xD1, 0x00, 0x06, 0x14, 0x40, 0x01, 0x02, 
  0x98, 0x64, 0x00, 0x07, 0x08, 0x20, 0x51, 0x01, 0x8C, 0x28, 0x00, 0x00, 
  0xFE, 0xFF, 0xFF, 0xFF, 0xFF, 0xFF, 0xFF, 0xFF, 0xFF, 0xFF, 0xFF, 0xFF, 
  0xFF, 0xFF, 0xFF, 0xFF, 0xFF, 0xFF, 0xFF, 0xFF, 0x03, 0xFF, 0xFF, 0xFF, 
  0xFF, 0xFF, 0xFF, 0xFF, 0xFF, 0xFF, 0xFF, 0xFF, 0xFF, 0xFF, 0xFF, 0xFF, 
  0xFF, 0xFF, 0xFF, 0xFF, 0xFF, 0x07, 0xFF, 0xFF, 0xFF, 0xFF, 0xFF, 0xFF, 
  0xFF, 0xFF, 0xFF, 0xFF, 0xFF, 0xFF, 0xFF, 0xFF, 0xFF, 0xFF, 0xFF, 0xFF, 
  0xFF, 0xFF, 0x07, 0xFF, 0xFF, 0xFF, 0xFF, 0xFF, 0xFF, 0xFF, 0xFF, 0xFF, 
  0xFF, 0xFF, 0xFF, 0xFF, 0xFF, 0xFF, 0xFF, 0xFF, 0xFF, 0xFF, 0xFF, 0x07, 
  0xF9, 0xFF, 0xFF, 0xFF, 0xFF, 0xFF, 0xFF, 0xFF, 0xFF, 0xFF, 0xFF, 0xFF, 
  0xFF, 0xFF, 0xFF, 0xFF, 0xFF, 0xFF, 0xFF, 0xFF, 0x07, 0xFF, 0xFF, 0xFF, 
  0xFF, 0xFF, 0xFF, 0xFF, 0xFF, 0xFF, 0xFF, 0xFF, 0xFF, 0xFF, 0xFF, 0xFF, 
  0xFF, 0xFF, 0xFF, 0xFF, 0xFF, 0x07, 0xFD, 0xFF, 0xFF, 0xFF, 0xFF, 0xFF, 
  0xFF, 0xFF, 0xFF, 0xFF, 0xFF, 0xFF, 0xFF, 0xFF, 0xFF, 0xFF, 0xFF, 0xFF, 
  0xFF, 0xFF, 0x07, 0xFF, 0xFF, 0xFF, 0xFF, 0xFF, 0xFF, 0xFF, 0xFF, 0xFF, 
  0xFF, 0xFF, 0xFF, 0xFF, 0xFF, 0xFF, 0xFF, 0xFF, 0xFF, 0xFF, 0xFF, 0x07, 
  0xFF, 0xFF, 0xFF, 0xFF, 0xFF, 0xFF, 0xFF, 0xFF, 0xFF, 0xFF, 0xFF, 0xFF, 
  0xFF, 0xFF, 0xFF, 0xFF, 0xFF, 0xFF, 0xFF, 0xFF, 0x07, 0xFD, 0xFF, 0xFF, 
  0xFF, 0xBF, 0xBD, 0xE7, 0xDF, 0xFB, 0xFE, 0xFF, 0xFB, 0xFF, 0xFF, 0xFF, 
  0xFF, 0xFF, 0xFF, 0xFF, 0xFF, 0x07, 0xFF, 0xFF, 0xFF, 0xFF, 0x9F, 0xA6, 
  0xD8, 0x9F, 0x8A, 0x82, 0x3F, 0x86, 0xF8, 0xFF, 0xFF, 0xFF, 0xFF, 0xFF, 
  0xFF, 0xFF, 0x07, 0xFB, 0xFF, 0xFF, 0xFF, 0x7F, 0x48, 0x96, 0xBF, 0x54, 
  0xB9, 0x5F, 0x54, 0xE6, 0xFF, 0xFF, 0xFF, 0xFF, 0xFF, 0xFF, 0xFF, 0x07, 
  0xFF, 0xFF, 0xFF, 0xFF, 0x5F, 0xFF, 0xFF, 0x5F, 0xFF, 0xFF, 0x9F, 0xFF, 
  0xC7, 0xFF, 0xFF, 0xFF, 0xFF, 0xFF, 0xFF, 0xFF, 0x07, 0xF9, 0xFF, 0xFF, 
  0xFF, 0xBF, 0xFF, 0xFF, 0x9F, 0xFF, 0xFF, 0x3F, 0xFF, 0x9F, 0xFF, 0xFF, 
  0xFF, 0xFF, 0xFF, 0xFF, 0xFF, 0x07, 0xFF, 0xFF, 0xFF, 0xFF, 0x9F, 0xFF, 
  0xFF, 0x3F, 0xFF, 0xFF, 0xBF, 0xFF, 0xDF, 0xFF, 0xFF, 0xFF, 0xFF, 0xFF, 
  0xFF, 0xFF, 0x07, 0xE7, 0xFF, 0xFF, 0xFF, 0x3F, 0xFF, 0xFF, 0xDF, 0xFF, 
  0xFF, 0x9F, 0xFF, 0x5F, 0xFF, 0xFF, 0xFF, 0xFF, 0xFF, 0xFF, 0xFF, 0x07, 
  0xAE, 0xFF, 0xBF, 0xFF, 0xBF, 0xFF, 0xFF, 0x5F, 0xFF, 0xFF, 0x5F, 0xFF, 
  0xDF, 0xFF, 0xFB, 0xBF, 0xFE, 0xFF, 0xF5, 0xFB, 0x07, 0xFE, 0xFF, 0x07, 
  0x8A, 0x5F, 0xFF, 0xFF, 0x3F, 0xFF, 0xFF, 0x3F, 0xFF, 0x1F, 0x9F, 0xC5, 
  0x2F, 0xF1, 0xFF, 0x96, 0xFA, 0x07, 0x63, 0xFE, 0x5B, 0x98, 0x1F, 0xFF, 
  0xFF, 0xBF, 0xFF, 0xFF, 0xBF, 0xFF, 0xBF, 0xFF, 0xDA, 0x53, 0xEA, 0x3F, 
  0xE9, 0xFD, 0x07, 0xFE, 0xFD, 0xF5, 0xE7, 0xBF, 0xFF, 0xFF, 0x5F, 0xFF, 
  0xFF, 0x5F, 0xFF, 0xCF, 0x1F, 0xFE, 0xE7, 0x97, 0x5F, 0x3F, 0xFA, 0x07, 
  0xF6, 0xFF, 0xF2, 0x97, 0xBF, 0xDF, 0xFE, 0x9F, 0xFF, 0xFB, 0x5F, 0xFF, 
  0x97, 0x5F, 0xFF, 0xF5, 0xAF, 0xDF, 0x7F, 0xFE, 0x07, 0xDB, 0xFD, 0xFC, 
  0xAF, 0x5F, 0x22, 0xE2, 0x3F, 0x20, 0xEC, 0xBF, 0xFF, 0xE7, 0xBF, 0xFF, 
  0xFB, 0x5F, 0xAF, 0xFF, 0xF9, 0x07, 0xFE, 0xFB, 0xFD, 0xDF, 0x1F, 0x94, 
  0xC5, 0x9F, 0x45, 0xD2, 0x1F, 0x90, 0xE4, 0x5F, 0xFF, 0xF8, 0x9F, 0xCF, 
  0xFF, 0xFC, 0x07, 0xAA, 0xFF, 0xFE, 0x9F, 0xBF, 0xFF, 0xFF, 0xBF, 0xFF, 
  0xFF, 0x7F, 0x4B, 0xFA, 0x9F, 0xFF, 0xFE, 0x7F, 0xDF, 0xFF, 0xF9, 0x07, 
  0xFD, 0x7F, 0xFD, 0xDF, 0x5F, 0xFF, 0xFF, 0x5F, 0xFF, 0xFF, 0xBF, 0xFF, 
  0xFF, 0x9F, 0xFF, 0xFE, 0x7F, 0xD7, 0xFF, 0xFA, 0x07, 0xE6, 0x79, 0xFC, 
  0x8F, 0x9F, 0xFF, 0xFF, 0x9F, 0xFF, 0xFF, 0x5F, 0xFF, 0xFF, 0xBF, 0xFF, 
  0xFD, 0x3F, 0xCF, 0xFF, 0xFC, 0x07, 0xF6, 0xFF, 0xFE, 0xEF, 0x3F, 0xFF, 
  0xFF, 0x3F, 0xFF, 0xFF, 0x1F, 0xFF, 0xFF, 0x9F, 0xFF, 0xFC, 0xBF, 0xE7, 
  0xFF, 0xFD, 0x07, 0x6D, 0x7F, 0xFD, 0x9F, 0xDF, 0xFF, 0xFF, 0xDF, 0xFF, 
  0xFF, 0xBF, 0xFF, 0xFF, 0xBF, 0xFF, 0xFE, 0x5F, 0xDF, 0xFF, 0xFA, 0x07, 
  0xDE, 0xFF, 0xFC, 0x8F, 0x5F, 0xFF, 0xFF, 0x5F, 0xFF, 0xFF, 0xBF, 0xFF, 
  0xFF, 0xDF, 0xFF, 0xFE, 0x9F, 0xEF, 0xFF, 0xFB, 0x07, 0xFA, 0xFF, 0xF9, 
  0xAF, 0xBF, 0xFF, 0xFF, 0x3F, 0xFF, 0xFF, 0x5F, 0xFF, 0xFF, 0x9F, 0xFF, 
  0xF9, 0x3F, 0x9F, 0xFF, 0xFC, 0x07, 0xF5, 0xFF, 0xFA, 0xBF, 0x3F, 0xFF, 
  0xFF, 0xBF, 0xFF, 0xFF, 0x1F, 0xFF, 0xFF, 0x9F, 0xFF, 0xF5, 0xEF, 0xAF, 
  0xFF, 0xF9, 0x07, 0xDE, 0xFF, 0xF3, 0xC3, 0x5F, 0xFF, 0xFF, 0x5F, 0xFF, 
  0xFF, 0xBF, 0xFF, 0xFF, 0xBF, 0xFF, 0xF3, 0x97, 0x5F, 0x3F, 0xFA, 0x07, 
  0xE7, 0xFF, 0x4B, 0x94, 0x9F, 0x4A, 0x92, 0x9F, 0x24, 0xAB, 0x5F, 0xFF, 
  0xFF, 0x9F, 0xFF, 0xD3, 0xD3, 0xBF, 0xB6, 0xFD, 0x07, 0xFC, 0xFF, 0xA7, 
  0xAB, 0x5F, 0x98, 0x99, 0x5F, 0x99, 0x90, 0xBF, 0xFF, 0xFF, 0xBF, 0xFF, 
  0x2F, 0xF8, 0x7F, 0x88, 0xF8, 0x07, 0xFF, 0xFF, 0x3F, 0xDF, 0xBF, 0x55, 
  0xA6, 0xBF, 0x65, 0xA6, 0x5F, 0xFF, 0xFF, 0xDF, 0xFF, 0x7F, 0xFE, 0xFF, 
  0xF3, 0xFA, 0x07, 0xFF, 0xFF, 0xFF, 0x9F, 0xFF, 0xFF, 0xFF, 0xFF, 0xFF, 
  0xFF, 0xFF, 0xFF, 0xFF, 0xFF, 0xFF, 0xFF, 0xFF, 0xFF, 0xFF, 0xFD, 0x07, 
  0xFD, 0x7F, 0xFF, 0xAF, 0xFF, 0xFF, 0xFF, 0xFF, 0xFF, 0xFF, 0xFF, 0xFF, 
  0xFF, 0xFF, 0xFF, 0xFF, 0xFF, 0xFF, 0xFF, 0xFA, 0x07, 0xFF, 0xFF, 0xF9, 
  0xD7, 0xFF, 0xFF, 0xFF, 0xFF, 0xFF, 0xFF, 0xFF, 0xFF, 0xFF, 0xFF, 0xFF, 
  0xFF, 0xFF, 0x9F, 0xFF, 0xFE, 0x07, 0xFF, 0xFF, 0xFA, 0xD7, 0xFF, 0xFF, 
  0xFF, 0xFF, 0xFF, 0xFF, 0xFF, 0xFF, 0xFF, 0xFF, 0xFF, 0xFF, 0xFF, 0xDF, 
  0x7F, 0xFD, 0x07, 0xFB, 0xFF, 0xA5, 0xE9, 0xFF, 0xFF, 0xFF, 0xFF, 0xFF, 
  0xFF, 0xFF, 0xFF, 0xFF, 0xFF, 0xFF, 0xFF, 0xFF, 0x1F, 0x9E, 0xFE, 0x07, 
  0xF9, 0xFF, 0x23, 0xF9, 0xFF, 0xFF, 0xFF, 0xFF, 0xFF, 0xFF, 0xFF, 0xFF, 
  0xFF, 0xFF, 0xFF, 0xFF, 0xFF, 0x3F, 0x49, 0xFF, 0x07, 0xFF, 0xFF, 0x9F, 
  0xFE, 0xFF, 0xFF, 0xFF, 0xFF, 0xFF, 0xFF, 0xFF, 0xFF, 0xFF, 0xFF, 0xFF, 
  0xFF, 0xFF, 0xFF, 0xD6, 0xFF, 0x07, 0xFB, 0xFF, 0xFF, 0xFF, 0xFF, 0xFF, 
  0xFF, 0xFF, 0xFF, 0xFF, 0xFF, 0xFF, 0xFF, 0xFF, 0xFF, 0xFF, 0xFF, 0xFF, 
  0xFF, 0xFF, 0x07, 0xFF, 0xFF, 0xFF, 0xFF, 0xFF, 0xFF, 0xFF, 0xFF, 0xFF, 
  0xFF, 0xFF, 0xFF, 0xFF, 0xFF, 0xFF, 0xFF, 0xFF, 0xFF, 0xFF, 0xFF, 0x07, 
  0xFB, 0xFF, 0xFF, 0xFF, 0xFF, 0xFF, 0xFF, 0xFF, 0xFF, 0xFF, 0xFF, 0xFF, 
  0xFF, 0xFF, 0xFF, 0xFF, 0xFF, 0xFF, 0xFF, 0xFF, 0x07, 0xFF, 0xFF, 0xFF, 
  0xFF, 0xFF, 0xFF, 0xFF, 0xFF, 0xFF, 0xFF, 0xFF, 0xFF, 0xFF, 0xFF, 0xFF, 
  0xFF, 0xFF, 0xFF, 0xFF, 0xFF, 0x07, 0xFD, 0xFF, 0xFF, 0xFF, 0xFF, 0xFF, 
  0xFF, 0xFF, 0xFF, 0xFF, 0xFF, 0xFF, 0xFF, 0xFF, 0xFF, 0xFF, 0xFF, 0xFF, 
  0xFF, 0xFF, 0x07, 0xFF, 0xFF, 0xFF, 0xFF, 0xFF, 0xFF, 0xFF, 0xFF, 0xFF, 
  0xFF, 0xFF, 0xFF, 0xFF, 0xFF, 0xFF, 0xFF, 0xFF, 0xFF, 0xFF, 0xFF, 0x07, 
  0xFF, 0xFF, 0xFF, 0xFF, 0xFF, 0xFF, 0xFF, 0xFF, 0xFF, 0xFF, 0xFF, 0xFF, 
  0xFF, 0xFF, 0xFF, 0xFF, 0xFF, 0xFF, 0xFF, 0xFF, 0x07, 0xFE, 0xFF, 0xFF, 
  0xFF, 0xFF, 0xFF, 0xFF, 0xFF, 0xFF, 0xFF, 0xFF, 0xFF, 0xFF, 0xFF, 0xFF, 
  0xFF, 0xFF, 0xFF, 0xFF, 0xFF, 0x03, 0x00, 0x70, 0xC4, 0x00, 0x26, 0x14, 
  0x40, 0x40, 0x02, 0x18, 0x54, 0x00, 0x2B, 0x0D, 0x60, 0x80, 0x01, 0x94, 
  0x2A, 0x00, 0x00, 0x00, 0x30, 0xA2, 0x00, 0x0E, 0x11, 0xC0, 0x05, 0x03, 
  0x18, 0x40, 0x00, 0x43, 0x08, 0x60, 0x35, 0x01, 0x9C, 0x20, 0x00, 0x00, 
  0x00, 0x70, 0xD0, 0x00, 0x22, 0x14, 0x40, 0x60, 0x02, 0x18, 0x40, 0x00, 
  0x49, 0x0A, 0xE0, 0xAA, 0x01, 0x1C, 0x31, 0x00, 0x00, 0x00, 0x10, 0x8A, 
  0x00, 0x06, 0x14, 0xC0, 0x09, 0x02, 0x58, 0x62, 0x00, 0x1B, 0x08, 0x20, 
  0x00, 0x01, 0x64, 0x24, 0x00, 0x00, 0x00, 0xB0, 0xA2, 0x00, 0x8E, 0x11, 
  0xC0, 0x02, 0x02, 0x58, 0x58, 0x00, 0x21, 0x0B, 0x60, 0x61, 0x01, 0x0C, 
  0x23, 0x00, 0x00, 0x00, 0x30, 0xC8, 0x00, 0x22, 0x18, 0x40, 0xA0, 0x02, 
  0x18, 0x42, 0x00, 0x87, 0x0C, 0x60, 0x85, 0x01, 0xDC, 0x38, 0x00, 0x00, 
  0x00, 0x70, 0xA4, 0x00, 0x0E, 0x18, 0x40, 0x14, 0x03, 0x38, 0x50, 0x00, 
  0x03, 0x09, 0x60, 0x44, 0x01, 0x1C, 0x28, 0x00, 0x00, 0x00, 0x30, 0xE5, 
  0x00, 0x52, 0x15, 0xC0, 0x43, 0x02, 0x48, 0x55, 0x00, 0xD7, 0x0C, 0xA0, 
  0x92, 0x01, 0x6C, 0x23, 0x00, 0x00, 0x00, 0xB0, 0x99, 0x00, 0x06, 0x19, 
  0xC0, 0xA6, 0x02, 0x98, 0x45, 0x00, 0x29, 0x09, 0xE0, 0xCB, 0x01, 0x94, 
  0x3A, 0x00, 0x00, 0x00, 0x70, 0xEA, 0x00, 0xFE, 0x1A, 0x40, 0x69, 0x03, 
  0xB8, 0x7A, 0x00, 0xEF, 0x0F, 0x60, 0x75, 0x01, 0x6C, 0x35, 0x00, 0x00, 
  0x00, 0xB0, 0xF7, 0x00, 0x9E, 0x17, 0xC0, 0xB7, 0x03, 0x78, 0x55, 0x00, 
  0x5B, 0x0F, 0xE0, 0xD5, 0x01, 0xEC, 0x2D, 0x00, 0x00, 0x00, 0xF0, 0xA6, 
  0x00, 0xF6, 0x1E, 0xC0, 0xED, 0x02, 0xD8, 0x7D, 0x00, 0xDF, 0x0A, 0x60, 
  0xBF, 0x01, 0xBC, 0x37, 0x00, 0x00, 0x00, 0xE0, 0xFF, 0x00, 0xB6, 0x17, 
  0xC0, 0xFF, 0x03, 0xD8, 0x77, 0x00, 0x77, 0x0F, 0xE0, 0xFF, 0x01, 0xDC, 
  0x3E, 0x00, 0x00, 0x00, 0xF0, 0xFF, 0x00, 0xFC, 0x1F, 0x80, 0xDD, 0x03, 
  0xF0, 0x7F, 0x00, 0xFE, 0x0F, 0xC0, 0xF7, 0x01, 0xF8, 0x3F, 0x00, 0x00, 
  0x00, 0xE0, 0x7F, 0x00, 0xFC, 0x0F, 0x80, 0xFF, 0x01, 0xF0, 0x3F, 0x00, 
  0xFE, 0x07, 0xC0, 0xFE, 0x00, 0xF8, 0x1F, 0x00, 0x00, 0x00, 0x80, 0x3F, 
  0x00, 0xF8, 0x07, 0x00, 0xFE, 0x00, 0xC0, 0x1F, 0x00, 0xF8, 0x03, 0x00, 
  0x7F, 0x00, 0xE0, 0x0F, 0x00, 0x00, 0x00, 0x00, 0x00, 0x00, 0xF8, 0x03, 
  0x00, 0x00, 0x00, 0xC0, 0x1F, 0x00, 0x00, 0x00, 0x00, 0x7F, 0x00, 0x00, 
  0x00, 0x00, 0x00, 0x00, 0x00, 0x00, 0x00, 0xF8, 0x03, 0x00, 0x00, 0x00, 
  0xC0, 0x1F, 0x00, 0x00, 0x00, 0x00, 0x7F, 0x00, 0x00, 0x00, 0x00, 0x00, 
  0x00, 0x00, 0x00, 0x00, 0xF8, 0x03, 0x00, 0x00, 0x00, 0xC0, 0x1F, 0x00, 
  0x00, 0x00, 0x00, 0x7F, 0x00, 0x00, 0x00, 0x00, 0x00, 0x00, 0x00, 0x00, 
  0x00, 0xF8, 0x03, 0x00, 0x00, 0x00, 0xC0, 0x1F, 0x00, 0x00, 0x00, 0x00, 
  0x7F, 0x00, 0x00, 0x00, 0x00, 0x00, 0x00, 0x00, 0x00, 0x00, 0xF8, 0x03, 
  0x00, 0x00, 0x00, 0xC0, 0x1F, 0x00, 0x00, 0x00, 0x00, 0x7F, 0x00, 0x00, 
  0x00, 0x00, 0x00, 0x00, 0x00, 0x00, 0x00, 0xF8, 0x03, 0x00, 0x00, 0x00, 
  0xC0, 0x1F, 0x00, 0x00, 0x00, 0x00, 0x7F, 0x00, 0x00, 0x00, 0x00, 0x00, 
  0x00, 0x00, 0x00, 0x00, 0xF8, 0x03, 0x00, 0x00, 0x00, 0xC0, 0x1F, 0x00, 
  0x00, 0x00, 0x00, 0x7F, 0x00, 0x00, 0x00, 0x00, 0x00, 0x00, 0x00, 0x00, 
  0x00, 0xF8, 0x03, 0x00, 0x00, 0x00, 0xC0, 0x1F, 0x00, 0x00, 0x00, 0x00, 
  0x7F, 0x00, 0x00, 0x00, 0x00, 0x00, 0x00, 0x00, 0x00, 0x00, 0xF8, 0x03, 
  0x00, 0x00, 0x00, 0xC0, 0x1F, 0x00, 0x00, 0x00, 0x00, 0x7F, 0x00, 0x00, 
  0x00, 0x00, 0x00, 0x00, 0x00, 0x00, 0x00, 0xF8, 0x03, 0x00, 0x00, 0x00, 
  0xC0, 0x1F, 0x00, 0x00, 0x00, 0x00, 0x7F, 0x00, 0x00, 0x00, 0x00, 0x00, 
  0x00, 0x00, 0x00, 0x00, 0xF8, 0x03, 0x00, 0x00, 0x00, 0xC0, 0x1F, 0x00, 
  0x00, 0x00, 0x00, 0x7F, 0x00, 0x00, 0x00, 0x00, 0x00, 0x00, 0x00, 0x00, 
  0x00, 0xF8, 0x03, 0x00, 0x00, 0x00, 0xC0, 0x1F, 0x00, 0x00, 0x00, 0x00, 
  0x7F, 0x00, 0x00, 0x00, 0x00, 0x00, 0x00, 0x00, 0x00, 0x00, 0xF8, 0x03, 
  0x00, 0x00, 0x00, 0xC0, 0x1F, 0x00, 0x00, 0x00, 0x00, 0x7F, 0x00, 0x00, 
  0x00, 0x00, 0x00, 0x00, 0x00, 0x00, 0x00, 0xF8, 0x03, 0x00, 0x00, 0x00, 
  0xC0, 0x1F, 0x00, 0x00, 0x00, 0x00, 0x7F, 0x00, 0x00, 0x00, 0x00, 0x00, 
  0x00, 0x00, 0x00, 0x00, 0xF8, 0x03, 0x00, 0x00, 0x00, 0xC0, 0x1F, 0x00, 
  0x00, 0x00, 0x00, 0x7F, 0x00, 0x00, 0x00, 0x00, 0x00, 0x00, 0x00, 0x00, 
  0x00, 0xF8, 0x07, 0x00, 0x00, 0x00, 0xC0, 0x1F, 0x00, 0x00, 0x00, 0x00, 
  0x7F, 0x00, 0x00, 0x00, 0x00, 0x00, 0x00, 0x00, 0x00, 0x00, 0xFC, 0x0F, 
  0x00, 0x00, 0x00, 0xC0, 0x1F, 0x00, 0x00, 0x00, 0x00, 0x7F, 0x00, 0x00, 
  0x00, 0x00, 0x00, 0x00, 0x00, 0x00, 0x00, 0xFE, 0x0F, 0x00, 0x00, 0x00, 
  0xC0, 0x1F, 0x00, 0x00, 0x00, 0x00, 0x7F, 0x00, 0x00, 0x00, 0x00, 0x00, 
  0x00, 0x00, 0x00, 0x00, 0xFF, 0x07, 0x00, 0x00, 0x00, 0xC0, 0x1F, 0x00, 
  0x00, 0x00, 0x00, 0x7F, 0x00, 0x00, 0x00, 0x00, 0x00, 0x00, 0x00, 0x00, 
  0x80, 0xFF, 0x03, 0x00, 0x00, 0x00, 0xC0, 0x1F, 0x00, 0x00, 0x00, 0x00, 
  0x7F, 0x00, 0x00, 0x00, 0x00, 0x00, 0x00, 0x00, 0x00, 0xC0, 0xFF, 0x01, 
  0x00, 0x00, 0x00, 0xC0, 0x1F, 0x00, 0x00, 0x00, 0x00, 0x7F, 0x00, 0x00, 
  0x00, 0x00, 0x00, 0x00, 0x00, 0x00, 0xE0, 0xFF, 0x00, 0x00, 0x00, 0x00, 
  0xC0, 0x1F, 0x00, 0x00, 0x00, 0x00, 0x7F, 0x00, 0x00, 0x00, 0x00, 0x00, 
  0x00, 0x00, 0x00, 0xF0, 0x7F, 0x00, 0x00, 0x00, 0x00, 0xC0, 0x1F, 0x00, 
  0x00, 0x00, 0x00, 0x7F, 0x00, 0x00, 0x00, 0x00, 0x00, 0x00, 0x00, 0x00, 
  0xF8, 0x3F, 0x00, 0x00, 0x00, 0x00, 0xC0, 0x1F, 0x00, 0x00, 0x00, 0x00, 
  0x7F, 0x00, 0x00, 0x00, 0x00, 0x00, 0x00, 0x00, 0x00, 0xFC, 0x1F, 0x00, 
  0x00, 0x00, 0x00, 0xC0, 0x1F, 0x00, 0x00, 0x00, 0x00, 0x7F, 0x00, 0x00, 
  0x00, 0x00, 0x00, 0xFF, 0xFF, 0xFF, 0xFF, 0x0F, 0x00, 0x00, 0x00, 0x00, 
  0xC0, 0x1F, 0x00, 0x00, 0x00, 0x00, 0x7F, 0x00, 0x00, 0x00, 0x00, 0x00, 
  0xFF, 0xFF, 0xFF, 0xFF, 0x07, 0x00, 0x00, 0x00, 0x00, 0xC0, 0x1F, 0x00, 
  0x00, 0x00, 0x00, 0x7F, 0x00, 0x00, 0x00, 0x00, 0x00, 0xFF, 0xFF, 0xFF, 
  0xFF, 0x03, 0x00, 0x00, 0x00, 0x00, 0xC0, 0x1F, 0x00, 0x00, 0x00, 0x00, 
  0x7F, 0x00, 0x00, 0x00, 0x00, 0x00, 0xFF, 0xFF, 0xFF, 0xFF, 0x01, 0x00, 
  0x00, 0x00, 0x00, 0xC0, 0x1F, 0x00, 0x00, 0x00, 0x00, 0x7F, 0x00, 0x00, 
  0x00, 0x00, 0x00, 0xFF, 0xFF, 0xFF, 0xFF, 0x00, 0x00, 0x00, 0x00, 0x00, 
  0xC0, 0x1F, 0x00, 0x00, 0x00, 0x00, 0x7F, 0x00, 0x00, 0x00, 0x00, 0x00, 
  0xFF, 0xFF, 0xFF, 0x7F, 0x00, 0x00, 0x00, 0x00, 0x00, 0xC0, 0x1F, 0x00, 
  0x00, 0x00, 0x00, 0x7F, 0x00, 0x00, 0x00, 0x00, 0x00, 0xFF, 0xFF, 0xFF, 
  0x3F, 0x00, 0x00, 0x00, 0x00, 0x00, 0xC0, 0x1F, 0x00, 0x00, 0x00, 0x00, 
  0x7F, 0x00, 0x00, 0x00, 0x00, 0x00, 0x00, 0x00, 0x00, 0x18, 0x00, 0x00, 
  0x00, 0x00, 0x00, 0xC0, 0x1F, 0x00, 0x00, 0x00, 0x00, 0x7F, 0x00, 0x00, 
  0x00, 0x00, 0x00, 0x00, 0x00, 0x00, 0x00, 0x00, 0x00, 0x00, 0x00, 0x00, 
  0xC0, 0x1F, 0x00, 0x00, 0x00, 0x00, 0x7F, 0x00, 0x00, 0x00, 0x00, 0x00, 
  0x00, 0x00, 0x00, 0x00, 0x00, 0x00, 0x00, 0x00, 0x00, 0xC0, 0x1F, 0x00, 
  0x00, 0x00, 0x00, 0x7F, 0x00, 0x00, 0x00, 0x00, 0x00, 0x00, 0x00, 0x00, 
  0x00, 0x00, 0x00, 0x00, 0x00, 0x00, 0xC0, 0x1F, 0x00, 0x00, 0x00, 0x00, 
  0x7F, 0x00, 0x00, 0x00, 0x00, 0x00, 0x00, 0x00, 0x00, 0x00, 0x00, 0x00, 
  0x00, 0x00, 0x00, 0xC0, 0x1F, 0x00, 0x00, 0x00, 0x00, 0x7F, 0x00, 0x00, 
  0x00, 0x00, 0x00, 0x00, 0x00, 0x00, 0x00, 0x00, 0x00, 0x00, 0x00, 0x00, 
  0xC0, 0x1F, 0x00, 0x00, 0x00, 0x00, 0x7F, 0x00, 0x00, 0x00, 0x00, 0x00, 
  0x00, 0x00, 0x00, 0x00, 0x00, 0x00, 0x00, 0x00, 0x00, 0xC0, 0x1F, 0x00, 
  0x00, 0x00, 0x00, 0x7F, 0x00, 0x00, 0x00, 0x00, 0x00, 0x00, 0x00, 0x00, 
  0x00, 0x00, 0x00, 0x00, 0x00, 0x00, 0xC0, 0x1F, 0x00, 0x00, 0x00, 0x00, 
  0x7F, 0x00, 0x00, 0x00, 0x00, 0x00, 0x00, 0x00, 0x00, 0x00, 0x00, 0x00, 
  0x00, 0x00, 0x00, 0xC0, 0x1F, 0x00, 0x00, 0x00, 0x00, 0x7F, 0x00, 0x00, 
  0x00, 0x00, 0x00, };
